<svg xmlns="http://www.w3.org/2000/svg" width="30.711" height="30.718" viewBox="0 0 30.711 30.718">
  <path id="corazon-casero_1_" data-name="corazon-casero (1)" d="M21.089,15.965c0,2.4-3.026,5.327-4.691,6.686a1.679,1.679,0,0,1-2.134,0c-1.665-1.359-4.691-4.282-4.691-6.686A3.033,3.033,0,0,1,12.452,12.8a3.033,3.033,0,0,1,2.879,3.167A3.033,3.033,0,0,1,18.21,12.8,3.033,3.033,0,0,1,21.089,15.965Zm9.621-3.313V23.674a7.046,7.046,0,0,1-7.038,7.038H7.038A7.046,7.046,0,0,1,0,23.674V12.652A7.029,7.029,0,0,1,3.1,6.817l8.318-5.611a7,7,0,0,1,7.872,0l8.318,5.612A7.025,7.025,0,0,1,30.711,12.652Zm-3.839,0A3.192,3.192,0,0,0,25.462,10L17.144,4.387a3.183,3.183,0,0,0-3.578,0L5.249,10a3.2,3.2,0,0,0-1.41,2.653V23.674a3.2,3.2,0,0,0,3.2,3.2H23.673a3.2,3.2,0,0,0,3.2-3.2Z" transform="translate(0 0.005)" fill="#f85e11"/>
</svg>
