<svg xmlns="http://www.w3.org/2000/svg" width="30.718" height="30.718" viewBox="0 0 30.718 30.718">
  <path id="insignia-porcentaje_1_" data-name="insignia-porcentaje (1)" d="M30.716,15.358a6.276,6.276,0,0,0-2.775-5.213A6.284,6.284,0,0,0,20.57,2.774a6.284,6.284,0,0,0-10.425,0,6.284,6.284,0,0,0-7.372,7.372,6.284,6.284,0,0,0,0,10.425,6.284,6.284,0,0,0,7.372,7.372,6.284,6.284,0,0,0,10.425,0,6.284,6.284,0,0,0,7.372-7.372A6.276,6.276,0,0,0,30.716,15.358ZM10.239,11.519a1.28,1.28,0,1,1,1.28,1.28A1.28,1.28,0,0,1,10.239,11.519Zm3.54,8.959H10.794l6.143-10.238h2.985Zm5.419,0a1.28,1.28,0,1,1,1.28-1.28A1.28,1.28,0,0,1,19.2,20.477Z" transform="translate(0.002 0.001)" fill="#f85e11"/>
</svg>
